<?xml version="1.0" standalone="no"?>
<!DOCTYPE svg PUBLIC "-//W3C//DTD SVG 20010904//EN"
 "http://www.w3.org/TR/2001/REC-SVG-20010904/DTD/svg10.dtd">
<svg version="1.0" xmlns="http://www.w3.org/2000/svg"
 width="955.000000pt" height="645.000000pt" viewBox="0 0 955.000000 645.000000"
 preserveAspectRatio="xMidYMid meet">

<g transform="translate(0.000000,645.000000) scale(0.100000,-0.100000)"
fill="#000000" stroke="none">
<path d="M4625 6424 c-240 -36 -400 -89 -568 -185 -373 -215 -629 -575 -714
-1004 -27 -136 -24 -416 5 -552 127 -586 566 -1023 1150 -1145 153 -32 411
-32 564 0 584 122 1023 559 1150 1145 29 136 32 416 5 552 -119 601 -569 1053
-1167 1170 -82 16 -360 29 -425 19z"/>
<path d="M1813 5885 c-276 -50 -527 -206 -698 -433 -329 -438 -292 -1048 86
-1447 159 -167 345 -271 582 -327 72 -16 123 -21 237 -20 128 0 159 4 262 30
469 121 796 499 850 983 50 447 -198 898 -608 1109 -89 46 -237 94 -334 110
-88 13 -289 11 -377 -5z"/>
<path d="M7345 5886 c-499 -98 -861 -491 -917 -996 -22 -203 16 -411 112 -607
147 -300 408 -510 738 -595 103 -26 134 -30 262 -30 157 -1 263 17 395 67 423
159 709 548 732 995 27 542 -319 1009 -857 1152 -98 26 -361 34 -465 14z"/>
<path d="M869 3763 c-179 -140 -381 -373 -508 -584 -112 -189 -207 -422 -261
-641 -56 -227 -65 -312 -64 -578 0 -284 9 -335 90 -499 133 -271 421 -418 918
-471 133 -14 494 -30 690 -30 l158 0 -6 25 c-3 13 -11 89 -16 167 -10 156 0
400 26 598 80 614 327 1207 692 1661 38 48 72 91 76 97 4 6 -26 -4 -66 -22
-201 -91 -346 -121 -588 -121 -157 0 -201 4 -289 23 -269 60 -499 184 -697
374 l-70 68 -85 -67z"/>
<path d="M8522 3749 c-260 -244 -568 -373 -922 -386 -236 -9 -432 29 -637 123
-40 18 -71 28 -67 22 4 -6 38 -49 76 -97 366 -455 613 -1050 693 -1667 24
-187 34 -442 25 -599 -5 -77 -9 -151 -10 -164 l0 -23 428 5 c461 5 587 15 780
63 377 93 569 299 628 674 20 129 15 460 -11 619 -75 473 -282 906 -593 1242
-66 70 -190 181 -272 241 l-35 26 -83 -79z"/>
<path d="M3340 3688 c-526 -399 -911 -1015 -1064 -1699 -64 -289 -93 -688 -67
-914 64 -558 383 -861 1031 -984 334 -63 592 -74 1745 -75 1082 -1 1160 2
1445 60 550 111 821 379 910 904 18 107 24 404 11 561 -36 421 -141 800 -321
1159 -199 395 -481 739 -811 989 l-66 49 -59 -60 c-239 -243 -561 -425 -889
-501 -151 -36 -254 -47 -425 -47 -171 0 -274 11 -425 47 -320 74 -607 232
-855 469 l-95 91 -65 -49z"/>
</g>
</svg>
