<?xml version="1.0" standalone="no"?>
<!DOCTYPE svg PUBLIC "-//W3C//DTD SVG 20010904//EN"
 "http://www.w3.org/TR/2001/REC-SVG-20010904/DTD/svg10.dtd">
<svg version="1.0" xmlns="http://www.w3.org/2000/svg"
 width="247.000000pt" height="200.000000pt" viewBox="0 0 247.000000 200.000000"
 preserveAspectRatio="xMidYMid meet">

<g transform="translate(0.000000,200.000000) scale(0.100000,-0.100000)"
fill="#000000" stroke="none">
<path d="M114 1985 c-41 -18 -91 -76 -104 -122 -8 -27 -10 -253 -8 -744 l3
-705 28 -42 c15 -23 45 -51 67 -62 37 -19 58 -20 440 -20 314 0 400 -3 399
-12 0 -7 -17 -56 -38 -108 l-39 -95 -133 -5 -134 -5 0 -30 0 -30 640 0 640 0
0 30 0 30 -127 3 c-84 2 -129 7 -135 15 -8 10 -44 97 -78 189 -6 16 21 18 407
20 l415 3 36 28 c21 16 46 46 57 68 20 38 20 55 18 762 l-3 723 -27 41 c-16
24 -44 49 -70 62 l-44 21 -1090 -1 c-894 0 -1095 -3 -1120 -14z m2226 -70 c61
-32 60 -15 60 -680 l0 -605 -1163 2 -1162 3 0 612 0 611 25 27 c14 15 34 31
45 35 11 5 503 9 1093 9 940 1 1077 -1 1102 -14z m60 -1410 c0 -61 -18 -105
-52 -129 -20 -14 -140 -16 -1106 -16 -1201 0 -1129 -4 -1158 65 -8 19 -14 57
-14 85 l0 50 1165 0 1165 0 0 -55z m-909 -315 c21 -52 38 -101 38 -107 1 -10
-64 -13 -294 -13 -162 0 -295 2 -295 5 0 11 74 191 83 203 7 9 59 12 219 10
l210 -3 39 -95z"/>
<path d="M1375 1770 c-16 -50 -14 -50 448 -48 388 3 431 5 440 20 8 12 7 21
-2 32 -12 14 -64 16 -447 16 -427 0 -433 0 -439 -20z"/>
<path d="M601 1727 c-24 -7 -48 -19 -54 -28 -7 -11 9 -71 57 -218 37 -112 70
-210 73 -218 3 -8 15 -13 29 -11 30 4 334 303 334 328 0 23 -67 79 -135 113
-91 45 -211 58 -304 34z m276 -102 c40 -20 73 -40 73 -44 0 -13 -217 -223
-227 -219 -4 1 -27 62 -50 133 -23 72 -44 137 -48 147 -9 22 15 28 104 23 61
-3 88 -10 148 -40z"/>
<path d="M1388 1629 c-26 -15 -22 -48 7 -59 13 -5 206 -9 434 -10 361 0 411 1
425 16 20 19 20 29 0 48 -14 14 -66 16 -432 16 -265 0 -423 -4 -434 -11z"/>
<path d="M424 1590 c-159 -77 -254 -230 -254 -409 0 -148 62 -275 177 -363 90
-67 158 -91 268 -92 147 0 242 40 339 144 60 65 74 94 56 115 -6 8 -89 60
-184 116 l-172 101 -67 201 c-49 151 -70 203 -85 208 -12 5 -40 -3 -78 -21z
m110 -250 l61 -185 155 -93 c85 -51 162 -97 170 -102 12 -7 7 -17 -28 -53 -52
-53 -131 -94 -209 -108 -158 -29 -340 67 -411 219 -24 50 -27 69 -27 162 0 94
3 111 27 160 15 30 41 71 58 91 32 40 118 101 133 96 5 -1 37 -86 71 -187z"/>
<path d="M907 1391 c-139 -137 -161 -162 -151 -178 14 -25 364 -233 391 -233
27 0 55 45 78 124 23 79 16 209 -14 289 -28 71 -94 157 -122 157 -12 0 -81
-60 -182 -159z m202 42 c12 -14 31 -58 43 -96 23 -78 21 -176 -6 -241 l-15
-36 -73 43 c-40 24 -103 61 -140 83 -37 21 -68 42 -68 46 0 8 223 227 232 228
4 0 16 -12 27 -27z"/>
<path d="M1995 1398 c-3 -7 -6 -141 -7 -298 -2 -182 -7 -285 -13 -285 -6 0
-12 80 -16 210 -3 116 -6 211 -7 213 -1 1 -62 1 -134 0 l-133 -3 -5 -209 c-4
-155 -8 -210 -17 -214 -10 -3 -13 31 -13 145 0 197 7 188 -150 188 -96 0 -123
-3 -130 -15 -5 -8 -10 -84 -10 -167 l0 -153 -29 0 c-21 0 -32 -6 -36 -20 -16
-50 -19 -50 521 -50 443 0 504 2 518 16 24 23 4 54 -34 54 l-30 0 0 288 c0
211 -3 291 -12 300 -17 17 -257 17 -263 0z m203 -320 l-3 -263 -65 0 -65 0 -3
263 -2 262 70 0 70 0 -2 -262z m-310 -85 l-3 -178 -65 0 -65 0 -3 178 -2 177
70 0 70 0 -2 -177z m-317 58 c10 -24 11 -205 2 -228 -4 -9 -26 -13 -69 -13
l-64 0 0 129 c0 94 3 131 13 134 6 3 34 5 61 4 41 -2 50 -6 57 -26z"/>
</g>
</svg>
