<?xml version="1.0" standalone="no"?>
<!DOCTYPE svg PUBLIC "-//W3C//DTD SVG 20010904//EN"
 "http://www.w3.org/TR/2001/REC-SVG-20010904/DTD/svg10.dtd">
<svg version="1.0" xmlns="http://www.w3.org/2000/svg"
 width="980.000000pt" height="982.000000pt" viewBox="0 0 980.000000 982.000000"
 preserveAspectRatio="xMidYMid meet">

<g transform="translate(0.000000,982.000000) scale(0.100000,-0.100000)"
fill="#000000" stroke="none">
<path d="M4312 9799 c-111 -10 -181 -42 -261 -121 -107 -105 -125 -160 -176
-559 -20 -155 -40 -292 -45 -304 -7 -17 -42 -33 -177 -80 -275 -95 -547 -213
-702 -304 l-52 -31 -162 129 c-179 142 -385 294 -429 317 -64 33 -242 35 -347
3 -22 -7 -76 -40 -118 -74 -155 -124 -688 -657 -813 -812 -77 -95 -95 -149
-95 -283 0 -76 5 -119 18 -158 21 -60 127 -208 320 -450 l130 -164 -37 -66
c-92 -165 -191 -393 -281 -652 -38 -107 -73 -200 -79 -207 -12 -13 -114 -29
-456 -73 -193 -25 -244 -35 -286 -56 -75 -38 -167 -125 -219 -208 l-45 -73 0
-663 0 -663 44 -72 c51 -80 142 -172 202 -203 50 -26 144 -43 439 -82 127 -17
250 -33 273 -37 52 -7 48 0 128 -228 87 -251 208 -525 300 -681 l18 -31 -130
-164 c-166 -209 -280 -362 -304 -408 -46 -90 -51 -265 -12 -369 11 -29 46 -84
77 -122 135 -164 653 -681 808 -805 57 -45 94 -67 136 -79 66 -19 226 -21 286
-5 54 15 151 81 408 282 l219 170 171 -82 c215 -103 343 -157 572 -237 98 -35
183 -68 187 -72 11 -11 24 -86 53 -317 51 -392 76 -466 195 -579 117 -110 157
-116 825 -116 674 0 708 5 829 121 82 78 120 144 142 251 13 63 84 596 84 632
0 11 32 25 103 47 200 62 425 152 633 253 l211 103 199 -160 c227 -183 351
-268 426 -293 35 -11 83 -17 148 -17 182 1 231 34 634 433 524 518 563 574
554 784 -6 148 -42 211 -306 541 -80 99 -149 185 -154 191 -5 7 22 73 75 180
93 190 164 362 247 604 41 116 63 166 76 172 11 4 134 21 274 38 458 56 541
86 643 236 81 119 82 127 82 784 -1 494 -3 574 -18 639 -19 84 -47 137 -112
209 -84 93 -168 119 -560 172 -126 16 -249 33 -273 37 -52 7 -50 4 -127 223
-74 211 -147 385 -241 572 l-74 149 154 197 c307 394 310 399 311 562 0 145
-16 196 -95 293 -133 166 -648 680 -813 812 -58 47 -94 67 -140 80 -82 24
-224 23 -292 0 -68 -24 -184 -105 -420 -294 l-199 -158 -110 58 c-212 111
-485 224 -708 293 -65 20 -120 41 -123 46 -3 5 -17 108 -31 227 -39 347 -58
446 -100 530 -44 88 -118 165 -197 205 -46 23 -79 31 -160 38 -125 11 -1026
10 -1155 -1z m973 -611 c2 -2 22 -167 45 -368 22 -201 46 -401 53 -445 l12
-80 40 -12 c22 -6 112 -28 200 -48 375 -88 720 -228 1070 -437 183 -109 218
-128 239 -128 8 0 169 124 358 274 l343 275 243 -242 c134 -133 257 -259 274
-280 l30 -37 -73 -98 c-40 -53 -159 -205 -264 -337 -105 -132 -194 -245 -198
-252 -9 -15 22 -79 126 -253 202 -339 347 -692 433 -1051 20 -85 40 -170 45
-191 19 -78 4 -74 409 -118 201 -22 399 -43 440 -47 l75 -8 -4 -390 c-2 -214
-8 -393 -12 -396 -5 -3 -62 -11 -127 -17 -248 -26 -728 -85 -747 -92 -17 -7
-28 -38 -64 -196 -105 -459 -240 -780 -502 -1201 -49 -78 -89 -144 -89 -147 0
-3 126 -161 280 -351 154 -191 280 -350 280 -353 0 -4 -125 -132 -277 -284
l-278 -277 -344 274 c-189 151 -350 275 -357 275 -21 0 -70 -26 -224 -120
-357 -216 -738 -368 -1194 -474 -60 -14 -115 -31 -122 -38 -17 -17 -27 -86
-69 -478 -19 -184 -38 -354 -41 -378 l-6 -42 -393 0 -393 0 -6 47 c-3 27 -24
219 -47 428 -22 209 -46 391 -52 405 -13 27 -41 37 -264 89 -350 83 -717 235
-1053 436 -166 99 -214 125 -233 125 -8 0 -117 -82 -243 -182 -316 -251 -444
-348 -461 -348 -14 0 -553 526 -553 539 0 3 124 161 275 350 151 189 275 346
275 349 0 11 -63 127 -130 237 -194 320 -350 698 -436 1056 -20 85 -41 171
-46 192 -5 21 -17 46 -27 56 -21 21 -52 25 -561 80 l-335 36 -3 393 c-2 309 0
393 10 396 7 2 191 23 408 46 508 54 471 47 492 90 9 19 33 103 52 185 91 394
228 735 433 1078 80 132 143 248 143 259 0 3 -124 160 -275 349 -151 189 -275
346 -275 349 0 3 125 130 278 283 l278 278 85 -68 c444 -361 614 -496 623
-496 6 0 56 29 111 65 391 253 731 400 1174 509 238 58 258 67 265 112 10 60
26 191 56 477 16 157 33 307 36 334 l6 49 390 -6 c214 -3 391 -7 393 -9z"/>
<path d="M4665 7354 c-335 -53 -457 -83 -669 -169 -221 -88 -404 -189 -574
-317 -111 -84 -315 -278 -408 -389 -275 -330 -495 -824 -545 -1224 -16 -130
-16 -561 0 -690 48 -378 221 -792 475 -1135 85 -114 290 -327 401 -417 298
-241 698 -431 1068 -507 137 -28 312 -39 567 -33 270 6 354 17 551 71 427 117
778 323 1099 645 297 298 494 626 613 1021 55 182 77 305 89 511 19 325 -7
611 -78 849 -176 591 -527 1067 -1031 1397 -234 154 -585 298 -846 348 -134
25 -626 52 -712 39z m385 -614 c496 -44 929 -273 1257 -664 281 -335 423 -727
423 -1171 0 -403 -129 -782 -378 -1110 -67 -88 -235 -258 -327 -330 -283 -222
-622 -354 -990 -386 -389 -33 -889 100 -1175 313 -238 178 -454 414 -571 625
-141 255 -215 526 -226 825 -7 186 7 334 47 498 96 390 285 693 606 970 132
114 239 184 386 255 303 144 623 203 948 175z"/>
</g>
</svg>
