<?xml version="1.0" standalone="no"?>
<!DOCTYPE svg PUBLIC "-//W3C//DTD SVG 20010904//EN"
 "http://www.w3.org/TR/2001/REC-SVG-20010904/DTD/svg10.dtd">
<svg version="1.0" xmlns="http://www.w3.org/2000/svg"
 width="512.000000pt" height="512.000000pt" viewBox="0 0 512.000000 512.000000"
 preserveAspectRatio="xMidYMid meet">

<g transform="translate(0.000000,512.000000) scale(0.100000,-0.100000)"
fill="#000000" stroke="none">
<path d="M2325 5113 c-323 -38 -570 -104 -828 -219 -549 -247 -1019 -716
-1268 -1266 -120 -264 -188 -523 -224 -850 l-6 -58 1200 0 1201 0 0 1200 0
1200 -22 -1 c-13 -1 -36 -4 -53 -6z m-255 -1218 l0 -845 -846 0 -847 0 7 41
c11 70 94 305 146 416 240 508 675 923 1185 1128 106 43 301 104 333 105 l22
0 0 -845z"/>
<path d="M2717 5113 c-7 -7 -10 -2273 -3 -2273 8 0 1951 1122 1963 1134 10 9
-3 33 -61 110 -433 578 -1055 938 -1764 1021 -70 8 -127 15 -128 15 0 0 -4 -3
-7 -7z m663 -470 c214 -84 423 -208 605 -358 130 -108 222 -202 210 -214 -6
-6 -253 -150 -550 -321 -297 -172 -555 -321 -572 -332 l-33 -20 0 675 0 676
113 -30 c61 -17 164 -51 227 -76z"/>
<path d="M3720 3055 l-1115 -645 -1300 -2 -1300 -3 3 -60 c9 -174 71 -458 144
-659 88 -244 251 -531 422 -743 92 -114 253 -273 377 -373 366 -295 779 -473
1266 -547 154 -23 517 -23 678 0 1158 168 2035 1045 2201 2202 21 146 24 494
6 635 -21 156 -61 334 -108 479 -48 149 -133 353 -149 357 -5 2 -512 -287
-1125 -641z m1009 36 c49 -200 64 -355 58 -591 -7 -284 -48 -497 -143 -738
-290 -744 -930 -1266 -1724 -1407 -130 -23 -456 -31 -601 -15 -669 74 -1258
435 -1632 1000 -123 186 -232 431 -292 652 l-23 88 1141 2 1142 3 59 24 c32
13 489 272 1015 576 675 390 958 548 963 540 4 -7 21 -67 37 -134z"/>
</g>
</svg>
