<?xml version="1.0" standalone="no"?>
<!DOCTYPE svg PUBLIC "-//W3C//DTD SVG 20010904//EN"
 "http://www.w3.org/TR/2001/REC-SVG-20010904/DTD/svg10.dtd">
<svg version="1.0" xmlns="http://www.w3.org/2000/svg"
 width="512.000000pt" height="512.000000pt" viewBox="0 0 512.000000 512.000000"
 preserveAspectRatio="xMidYMid meet">

<g transform="translate(0.000000,512.000000) scale(0.100000,-0.100000)"
fill="#000000" stroke="none">
<path d="M769 4426 c-102 -27 -181 -95 -228 -196 l-26 -55 0 -1615 0 -1615 26
-56 c37 -79 90 -133 167 -171 l67 -33 930 0 930 0 62 29 c73 33 144 103 176
174 l22 47 0 1625 0 1625 -22 47 c-32 71 -103 141 -176 174 l-62 29 -910 2
c-700 1 -921 -1 -956 -11z m1106 -501 l0 -170 -510 0 -510 0 -3 160 c-1 87 0
165 2 172 4 11 104 13 513 11 l508 -3 0 -170z m685 -685 l0 -170 -855 0 -855
0 0 170 0 170 855 0 855 0 0 -170z m-340 -680 l0 -170 -685 0 -685 0 0 170 0
170 685 0 685 0 0 -170z m-340 -680 l0 -170 -515 0 -515 0 0 170 0 170 515 0
515 0 0 -170z m680 -685 l0 -175 -852 2 -853 3 -3 160 c-1 87 0 165 2 172 4
10 171 13 856 13 l850 0 0 -175z"/>
<path d="M3695 3781 l-160 -118 -55 19 c-58 20 -206 58 -227 58 -10 0 -13
-243 -13 -1180 0 -937 3 -1180 13 -1180 21 0 169 38 227 58 l56 19 162 -119
163 -119 24 19 c83 66 365 306 365 312 0 4 -38 87 -86 185 l-85 177 53 107
c30 58 61 124 70 147 l15 41 197 49 196 48 0 256 0 256 -196 48 -197 49 -15
41 c-9 23 -40 89 -70 147 l-53 107 85 177 c48 98 86 181 86 185 0 8 -375 324
-387 327 -5 0 -80 -52 -168 -116z"/>
</g>
</svg>
