<?xml version="1.0" standalone="no"?>
<!DOCTYPE svg PUBLIC "-//W3C//DTD SVG 20010904//EN"
 "http://www.w3.org/TR/2001/REC-SVG-20010904/DTD/svg10.dtd">
<svg version="1.0" xmlns="http://www.w3.org/2000/svg"
 width="512.000000pt" height="512.000000pt" viewBox="0 0 512.000000 512.000000"
 preserveAspectRatio="xMidYMid meet">

<g transform="translate(0.000000,512.000000) scale(0.100000,-0.100000)"
fill="#000000" stroke="none">
<path d="M2490 5102 c-25 -12 -151 -159 -433 -502 -218 -267 -406 -502 -417
-522 -42 -78 -16 -168 60 -212 31 -19 55 -21 223 -25 l187 -3 -2 -161 -3 -161
-682 -226 c-375 -124 -695 -234 -710 -246 -20 -15 -102 -164 -275 -500 -136
-263 -250 -491 -254 -507 -10 -43 4 -94 37 -132 26 -29 55 -42 229 -100 l199
-66 3 -522 c3 -501 4 -523 23 -556 11 -19 31 -42 45 -52 29 -22 1803 -609
1839 -609 30 0 1770 574 1823 601 76 39 72 11 78 604 l5 530 191 65 c105 36
203 73 218 83 39 26 70 99 61 145 -5 29 -408 823 -492 969 -13 24 -38 50 -56
60 -18 9 -333 116 -702 237 l-670 222 -3 161 -2 161 187 3 c174 4 191 6 224
27 21 12 44 33 53 47 25 39 31 106 12 146 -29 61 -812 1012 -853 1036 -46 27
-96 29 -143 5z m296 -665 l222 -272 -102 -5 c-116 -6 -157 -23 -191 -80 -19
-34 -20 -53 -23 -528 l-3 -493 -132 3 -132 3 -5 497 c-5 482 -6 497 -26 524
-43 59 -67 69 -181 74 l-105 5 223 273 c123 149 225 272 228 272 4 -1 106
-123 227 -273z m-650 -1613 c11 -15 33 -37 48 -48 27 -20 40 -21 374 -21 l347
0 33 23 c58 42 66 70 72 248 l5 161 395 -132 395 -132 -624 -206 -624 -206
-621 206 -621 206 395 132 395 132 5 -168 c4 -149 7 -171 26 -195z m-526 -330
c393 -130 717 -238 719 -239 3 -3 -297 -592 -317 -622 -5 -9 -205 53 -724 225
-394 130 -718 241 -718 245 -2 10 313 626 320 627 3 0 327 -106 720 -236z
m2781 -74 c87 -168 158 -309 158 -315 1 -8 -1396 -475 -1432 -479 -9 -1 -326
602 -327 621 0 7 44 26 98 43 53 16 374 122 712 235 338 112 619 203 624 202
4 -2 80 -140 167 -307z m-1995 -2038 c-3 -2 -323 101 -713 230 l-708 234 -3
392 -2 393 22 -7 c13 -3 253 -82 533 -174 281 -92 523 -171 538 -174 43 -10
102 11 134 47 15 18 66 108 113 199 l85 166 3 -651 c1 -357 0 -652 -2 -655z
m449 1067 c36 -71 66 -117 90 -137 72 -59 60 -62 659 138 298 99 545 180 549
180 4 0 6 -176 5 -392 l-3 -392 -705 -233 c-388 -128 -708 -233 -712 -233 -5
0 -8 294 -8 653 l0 652 36 -65 c19 -36 60 -113 89 -171z"/>
</g>
</svg>
